# xmcd CD database file
#
# Track frame offsets:
#	150
#	7522
#	19222
#	31450
#	41965
#	53097
#	65285
#	78782
#	89917
#	102490
#	112377
#	124017
#
# Disc length: 1792 seconds
#
# Revision: 0
# Processed by: cddbd v1.5.2PL0 Copyright (c) Steve Scherf et al.
# Submitted via: CDex 1.51
#
DISCID=9c06fe0c
DTITLE=The Rolling Stones - December's Children (and everybody's)
DYEAR=1965
DGENRE=Rhythm and Blues
TTITLE0=She Said Yeah
TTITLE1=Talkin' About You
TTITLE2=You Better Move On
TTITLE3=Look What You've Done
TTITLE4=The Singer Not The Song
TTITLE5=Route 66
TTITLE6=Get Off Of My Cloud
TTITLE7=I'm Free
TTITLE8=As Tears Go By
TTITLE9=Gotta Get Away
TTITLE10=Blue Turns To Grey
TTITLE11=I'm Moving On
EXTD=YEAR: 1965
EXTT0=
EXTT1=
EXTT2=
EXTT3=
EXTT4=
EXTT5=
EXTT6=
EXTT7=
EXTT8=
EXTT9=
EXTT10=
EXTT11=
PLAYORDER=
